<?xml version="1.0" encoding="UTF-8" standalone="no"?>
<!-- Created with Inkscape (http://www.inkscape.org/) -->

<svg
   version="1.1"
   id="svg2"
   xml:space="preserve"
   width="495.88531"
   height="495.88541"
   viewBox="0 0 495.88531 495.8854"
   sodipodi:docname="faviconLogo.svg"
   inkscape:version="1.1.1 (3bf5ae0d25, 2021-09-20)"
   xmlns:inkscape="http://www.inkscape.org/namespaces/inkscape"
   xmlns:sodipodi="http://sodipodi.sourceforge.net/DTD/sodipodi-0.dtd"
   xmlns="http://www.w3.org/2000/svg"
   xmlns:svg="http://www.w3.org/2000/svg"><defs
     id="defs6" /><sodipodi:namedview
     id="namedview4"
     pagecolor="#ffffff"
     bordercolor="#666666"
     borderopacity="1.0"
     inkscape:pageshadow="2"
     inkscape:pageopacity="0.0"
     inkscape:pagecheckerboard="0"
     showgrid="false"
     inkscape:zoom="0.89914771"
     inkscape:cx="162.37599"
     inkscape:cy="389.25751"
     inkscape:window-width="1920"
     inkscape:window-height="1043"
     inkscape:window-x="1920"
     inkscape:window-y="0"
     inkscape:window-maximized="1"
     inkscape:current-layer="g10" /><g
     id="g8"
     inkscape:groupmode="layer"
     inkscape:label="ink_ext_XXXXXX"
     transform="matrix(1.3333333,0,0,-1.3333333,13.333333,482.66665)"><g
       id="g10"
       transform="scale(0.1)"><path
         d="M 3519.14,1760.43 C 3519.14,788.629 2731.37,0.859375 1759.57,0.859375 787.77,0.859375 0,788.629 0,1760.43 0,2732.23 787.77,3520 1759.57,3520 c 971.8,0 1759.57,-787.77 1759.57,-1759.57 z"
         style="fill:none;fill-opacity:1;fill-rule:nonzero;stroke:#3986bb;stroke-width:200;stroke-miterlimit:4;stroke-dasharray:none;stroke-opacity:1"
         id="path12" /><path
         d="m 2575,2195.55 c 0,0 -397.97,-267.5 -675.35,-196.53 -277.42,70.98 -499.34,-158.28 -476.21,-343.9 23.12,-185.59 157.18,-480.35 -143.32,-649.57 C 979.609,836.332 905.621,656.09 1035.08,342.27 H 2575 v 1853.28"
         style="fill:#100f0d;fill-opacity:1;fill-rule:nonzero;stroke:none"
         id="path14" /><path
         d="m 1968.98,2675.9 c -9.6,18.71 -19.37,37.22 -29.41,55.51 -10.16,18.2 -19.92,36.71 -30.35,54.64 -20.59,36.1 -41.21,72.11 -62.42,107.62 l -4.07,6.76 -9.53,2.27 c -22.15,5.27 -44.29,10.82 -66.48,15.78 -22.15,5.11 -44.38,10.11 -66.56,14.84 -44.42,9.65 -88.91,18.67 -133.48,27.19 l -88.48,16.87 59.38,-82.38 c 5,-6.95 10.66,-15.12 15.9,-22.93 5.35,-7.85 10.7,-15.82 15.93,-23.83 10.51,-16.09 20.67,-32.5 30.63,-49.06 20.08,-32.97 38.63,-67.11 56.25,-101.64 34.33,-69.42 64.49,-141.99 79.92,-217.42 3.83,-18.79 6.72,-37.74 8.24,-56.64 l 2.54,-31.02 c 1.02,-10.82 1.41,-21.64 2.93,-32.38 4.77,-43.09 12.89,-85.39 23.24,-126.68 10.39,-41.25 23.95,-81.21 39.69,-119.57 16.17,-38.13 34.26,-75.2 56.64,-108.28 -27.07,77.93 -45.39,158.12 -55.78,238.83 -1.56,10.03 -2.46,20.19 -3.59,30.27 -1.14,10.08 -2.19,20.15 -2.78,30.27 -0.7,10.12 -1.72,20.16 -2.18,30.28 l -1.1,30.27 c -0.58,10.04 -0.19,20.12 -0.35,30.19 l -0.19,31.64 c -0.12,22.9 -2.47,45.43 -5.55,67.66 -6.45,44.38 -17.62,86.99 -31.6,127.7 -13.91,40.82 -30.67,79.68 -49.1,117.18 -18.36,37.54 -38.91,73.28 -60.36,108.05 -10.89,17.31 -22.14,34.22 -33.71,50.86 -11.64,16.87 -23.2,32.7 -36.48,49.34 l -29.14,-65.51 c 44.84,-6.06 89.72,-11.6 134.72,-16.49 22.47,-2.54 44.97,-4.84 67.5,-6.99 22.5,-2.3 45.04,-4.06 67.58,-6.09 l -13.59,9.06 c 25.04,-31.84 50.62,-63.12 76.29,-94.37 12.69,-15.71 26.01,-30.86 38.98,-46.33 13.09,-15.39 26.41,-30.51 39.92,-45.47"
         style="fill:#100f0d;fill-opacity:1;fill-rule:nonzero;stroke:none"
         id="path16" /><path
         d="m 1428.05,2427.46 c 16.21,21.17 34.8,60.12 50.15,81.95 15.59,21.64 27.11,62.86 42.27,84.81 l 2.5,3.67 0.15,8.59 c 0.4,22.93 0.2,45.79 0.2,68.72 -0.23,22.85 -0.23,45.74 -0.7,68.59 -0.71,45.7 -1.8,91.37 -3.52,136.99 l -48.48,-33.16 3.95,-3.83 c 1.45,-1.37 2.93,-2.89 4.41,-4.45 2.97,-3.09 5.94,-6.14 8.87,-9.5 5.94,-6.4 11.72,-13.24 17.5,-20 5.67,-6.95 11.21,-14.1 16.72,-21.25 l 15.94,-22.14 c 20.9,-29.93 39.14,-62.39 55.35,-96.02 32.89,-67.19 54.61,-141.29 67.34,-217.93 12.5,-77.46 18.36,-157.93 15.24,-237.77 -3.28,-79.85 -13.56,-160.82 -40.86,-237.66 11.72,15.7 21.76,33.36 30.51,51.76 8.9,18.36 16.79,37.46 23.59,57.15 3.44,9.8 6.41,19.84 9.61,29.8 3.09,10.04 5.62,20.24 8.36,30.43 2.85,10.2 4.61,20.59 6.91,30.98 l 3.24,15.58 2.47,15.75 c 7.22,41.99 10.19,84.8 11.36,127.61 -0.19,21.37 0.75,42.93 -0.9,64.22 -1.17,21.37 -1.83,42.74 -4.96,64.34 -9.45,86.29 -32.93,171.48 -70.5,247.22 -4.61,9.54 -9.18,19.11 -14.46,28.13 -5.19,9.1 -10.04,18.48 -15.54,27.3 l -16.84,26.21 -17.89,25.16 c -6.09,8.28 -12.66,16.13 -19.02,24.1 -6.61,7.74 -13.29,15.39 -20.12,22.89 -7.03,7.31 -13.87,14.77 -21.37,21.64 -3.59,3.52 -7.42,6.92 -11.29,10.32 -1.87,1.68 -3.83,3.36 -5.9,5.07 l -6.64,5.39 -56.25,45.71 7.78,-78.87 c 4.45,-45.39 9.53,-90.66 15,-135.94 2.57,-22.65 5.66,-45.23 8.51,-67.85 3.09,-22.62 5.98,-45.23 9.46,-67.77 l 2.65,12.22 c -11.05,-25.15 -22.65,-49.88 -33.24,-75.35 -10.86,-25.31 -21.52,-86.83 -31.56,-112.81"
         style="fill:#100f0d;fill-opacity:1;fill-rule:nonzero;stroke:none"
         id="path18" /><path
         d="m 1428.05,2427.46 c 0,0 -124.81,-253.75 -249.65,-302.89 0,0 9.26,-207.42 -60.08,-360.27 -69.37,-152.85 87.81,-414.85 87.81,-414.85 L 1220,1038.28 c 0,0 78.63,129.73 0,458.56 l 249.34,-227.93 -164.07,358.94 -108.36,105.04 c 0,0 60.79,217.34 60.08,331.64 0,0 171.06,201.88 171.06,362.93"
         style="fill:#21245a;fill-opacity:1;fill-rule:nonzero;stroke:none"
         id="path20" /><path
         d="m 951.879,1605.98 c 0,0 -46.258,316.64 87.851,507.69 h 110.93 c 0,0 -18.47,-212.89 -69.33,-327.54 l -33.91,219.42 c 0,0 -101.209,-205.28 -95.541,-399.57"
         style="fill:#21245a;fill-opacity:1;fill-rule:nonzero;stroke:none"
         id="path22" /><path
         d="m 1007.77,2282.89 c 0,-60.59 41.57,-109.69 92.85,-109.69 51.29,0 92.9,49.1 92.9,109.69 0,60.55 -41.61,109.65 -92.9,109.65 -51.28,0 -92.85,-49.1 -92.85,-109.65"
         style="fill:#21245a;fill-opacity:1;fill-rule:nonzero;stroke:none"
         id="path24" /><path
         d="m 1305.27,3068.91 c 0,-60.55 41.61,-109.65 92.89,-109.65 51.29,0 92.89,49.1 92.89,109.65 0,60.58 -41.6,109.68 -92.89,109.68 -51.28,0 -92.89,-49.1 -92.89,-109.68"
         style="fill:#100f0d;fill-opacity:1;fill-rule:nonzero;stroke:none"
         id="path26" /></g></g></svg>
