<?xml version="1.0" encoding="UTF-8" standalone="no"?>
<!-- Created with Inkscape (http://www.inkscape.org/) -->

<svg
   version="1.1"
   id="svg2"
   xml:space="preserve"
   width="1166.4"
   height="378.23999"
   viewBox="0 0 1166.4 378.23999"
   sodipodi:docname="wcppt-logo.svg"
   inkscape:version="1.1.1 (3bf5ae0d25, 2021-09-20)"
   xmlns:inkscape="http://www.inkscape.org/namespaces/inkscape"
   xmlns:sodipodi="http://sodipodi.sourceforge.net/DTD/sodipodi-0.dtd"
   xmlns="http://www.w3.org/2000/svg"
   xmlns:svg="http://www.w3.org/2000/svg"><defs
     id="defs6" /><sodipodi:namedview
     id="namedview4"
     pagecolor="#ffffff"
     bordercolor="#666666"
     borderopacity="1.0"
     inkscape:pageshadow="2"
     inkscape:pageopacity="0.0"
     inkscape:pagecheckerboard="true"
     showgrid="false"
     inkscape:zoom="0.27477709"
     inkscape:cx="-110.99906"
     inkscape:cy="-89.163183"
     inkscape:window-width="1920"
     inkscape:window-height="1016"
     inkscape:window-x="0"
     inkscape:window-y="27"
     inkscape:window-maximized="1"
     inkscape:current-layer="g8" /><g
     id="g8"
     inkscape:groupmode="layer"
     inkscape:label="ink_ext_XXXXXX"
     transform="matrix(1.3333333,0,0,-1.3333333,0,378.24)"><g
       id="g10"
       transform="scale(0.1)"
       style="fill:#ffffff;fill-opacity:1"><g
         id="g12"
         transform="scale(10)"
         style="fill:#ffffff;fill-opacity:1"><text
           transform="matrix(0.846968,0,0,-1,182.358,84.5781)"
           style="font-variant:normal;font-weight:bold;font-size:143.493px;font-family:'Barlow Condensed';-inkscape-font-specification:BarlowCondensed-Bold;writing-mode:lr-tb;fill:#ffffff;fill-opacity:1;fill-rule:nonzero;stroke:none"
           id="text16"><tspan
             x="0 98.866676 131.87007 160.56674 227.14549 291.28571 336.91718 400.3385 464.47815 497.04944 559.32465 588.02197 654.74548 718.59912 751.17047"
             y="0"
             sodipodi:role="line"
             id="tspan14">WI Chronic Pain</tspan></text></g><path
         d="m 1630.83,1853.75 c 0,0 -397.95,-267.48 -675.346,-196.51 C 678.082,1728.2 456.16,1498.94 479.281,1313.34 502.398,1127.74 636.477,832.98 335.957,663.762 35.4414,494.539 -38.5313,314.301 90.9219,0.480469 H 1630.83 V 1853.75"
         style="fill:#ffffff;fill-opacity:1;fill-rule:nonzero;stroke:none"
         id="path18" /><path
         d="m 1024.83,2334.12 c -9.6,18.7 -19.37,37.24 -29.424,55.51 -10.136,18.19 -19.933,36.71 -30.347,54.64 -20.575,36.09 -41.215,72.12 -62.426,107.61 l -4.055,6.78 -9.543,2.27 c -22.156,5.27 -44.285,10.79 -66.476,15.75 -22.168,5.14 -44.36,10.12 -66.579,14.84 -44.414,9.67 -88.902,18.68 -133.449,27.19 l -88.496,16.88 59.383,-82.39 c 5.012,-6.95 10.656,-15.1 15.891,-22.92 5.371,-7.85 10.695,-15.8 15.937,-23.84 10.5,-16.07 20.652,-32.49 30.613,-49.04 20.098,-32.96 38.633,-67.11 56.266,-101.64 34.355,-69.42 64.508,-141.99 79.91,-217.41 3.828,-18.79 6.75,-37.75 8.25,-56.65 l 2.559,-31.01 c 0.996,-10.82 1.402,-21.67 2.902,-32.41 4.789,-43.08 12.91,-85.39 23.238,-126.65 10.395,-41.28 23.969,-81.21 39.7,-119.6 16.164,-38.13 34.25,-75.19 56.644,-108.25 -27.07,77.91 -45.394,158.09 -55.785,238.83 -1.555,10.02 -2.465,20.18 -3.586,30.26 -1.152,10.07 -2.207,20.14 -2.758,30.28 -0.703,10.11 -1.734,20.15 -2.187,30.25 l -1.125,30.27 c -0.574,10.05 -0.199,20.15 -0.356,30.2 l -0.191,31.64 c -0.102,22.91 -2.449,45.44 -5.52,67.65 -6.453,44.38 -17.644,87.02 -31.629,127.7 -13.878,40.82 -30.648,79.71 -49.093,117.19 -18.34,37.56 -38.903,73.28 -60.364,108.07 -10.875,17.28 -22.148,34.19 -33.695,50.86 -11.644,16.85 -23.184,32.69 -36.496,49.32 l -29.109,-65.5 c 44.832,-6.05 89.726,-11.6 134.695,-16.48 22.476,-2.56 44.976,-4.86 67.496,-7 22.5,-2.32 45.07,-4.07 67.602,-6.08 l -13.594,9.05 c 25.019,-31.84 50.617,-63.13 76.269,-94.36 12.707,-15.73 26.028,-30.88 39.008,-46.34 13.059,-15.4 26.41,-30.52 39.92,-45.47"
         style="fill:#ffffff;fill-opacity:1;fill-rule:nonzero;stroke:none"
         id="path20" /><path
         d="m 483.902,2085.69 c 16.188,21.17 34.789,60.12 50.133,81.94 15.586,21.64 27.125,62.84 42.27,84.82 l 2.508,3.64 0.148,8.62 c 0.391,22.92 0.191,45.79 0.211,68.69 -0.231,22.87 -0.242,45.76 -0.723,68.6 -0.711,45.71 -1.808,91.39 -3.496,137.01 l -48.476,-33.17 3.925,-3.83 c 1.434,-1.36 2.918,-2.89 4.414,-4.46 2.977,-3.07 5.957,-6.14 8.879,-9.49 5.938,-6.4 11.727,-13.23 17.496,-20.01 5.664,-6.94 11.219,-14.08 16.719,-21.23 l 15.918,-22.16 c 20.902,-29.92 39.152,-62.39 55.363,-96.02 32.887,-67.18 54.618,-141.28 67.364,-217.94 12.488,-77.46 18.34,-157.92 15.218,-237.75 -3.285,-79.87 -13.566,-160.81 -40.851,-237.65 11.719,15.69 21.766,33.36 30.5,51.75 8.926,18.34 16.793,37.46 23.613,57.13 3.426,9.82 6.375,19.84 9.594,29.83 3.082,10.02 5.617,20.22 8.367,30.42 2.828,10.18 4.594,20.6 6.891,30.96 l 3.258,15.59 2.457,15.75 c 7.234,42 10.179,84.8 11.371,127.63 -0.215,21.34 0.742,42.93 -0.918,64.22 -1.168,21.35 -1.832,42.72 -4.942,64.33 -9.441,86.3 -32.933,171.48 -70.515,247.23 -4.618,9.52 -9.176,19.08 -14.461,28.11 -5.196,9.09 -10.008,18.48 -15.535,27.3 l -16.821,26.21 -17.922,25.18 c -6.089,8.28 -12.64,16.11 -19,24.09 -6.625,7.73 -13.293,15.39 -20.136,22.88 -7.004,7.32 -13.871,14.77 -21.336,21.65 -3.614,3.52 -7.453,6.92 -11.305,10.3 -1.894,1.7 -3.828,3.39 -5.918,5.09 l -6.625,5.38 -56.262,45.71 7.786,-78.88 c 4.472,-45.36 9.539,-90.66 14.996,-135.93 2.601,-22.64 5.671,-45.24 8.523,-67.85 3.102,-22.6 5.988,-45.22 9.457,-67.78 l 2.656,12.25 c -11.054,-25.15 -22.644,-49.89 -33.254,-75.37 -10.855,-25.3 -21.519,-86.84 -31.539,-112.79"
         style="fill:#ffffff;fill-opacity:1;fill-rule:nonzero;stroke:none"
         id="path22" /><path
         d="m 483.902,2085.69 c 0,0 -124.828,-253.78 -249.66,-302.9 0,0 9.25,-207.43 -60.101,-360.28 -69.352,-152.84 87.843,-414.85 87.843,-414.85 l 13.871,-311.148 c 0,0 78.598,129.699 0,458.528 L 525.188,927.109 361.113,1286.05 252.738,1391.1 c 0,0 60.793,217.34 60.106,331.64 0,0 171.058,201.87 171.058,362.95"
         style="fill:#ffffff;fill-opacity:1;fill-rule:nonzero;stroke:none"
         id="path24" /><path
         d="m 7.69922,1264.21 c 0,0 -46.23052,316.61 87.84768,507.66 H 206.504 c 0,0 -18.492,-212.89 -69.352,-327.52 l -33.898,219.43 c 0,0 -101.1915,-205.3 -95.55478,-399.57"
         style="fill:#ffffff;fill-opacity:1;fill-rule:nonzero;stroke:none"
         id="path26" /><path
         d="m 63.5938,1941.09 c 0,-60.57 41.5862,-109.66 92.8832,-109.66 51.293,0 92.878,49.09 92.878,109.66 0,60.57 -41.585,109.66 -92.878,109.66 -51.297,0 -92.8832,-49.09 -92.8832,-109.66"
         style="fill:#ffffff;fill-opacity:1;fill-rule:nonzero;stroke:none"
         id="path28" /><path
         d="m 361.113,2727.14 c 0,-60.57 41.586,-109.66 92.883,-109.66 51.293,0 92.879,49.09 92.879,109.66 0,60.56 -41.586,109.66 -92.879,109.66 -51.297,0 -92.883,-49.1 -92.883,-109.66"
         style="fill:#ffffff;fill-opacity:1;fill-rule:nonzero;stroke:none"
         id="path30" /><g
         id="g32"
         transform="scale(10)"
         style="fill:#ffffff;fill-opacity:1"><text
           transform="matrix(1,0,0,-0.91330873,197.209,14.643)"
           style="font-variant:normal;font-weight:600;font-size:76.3488px;font-family:'Barlow Condensed';-inkscape-font-specification:BarlowCondensed-SemiBold;writing-mode:lr-tb;fill:#ffffff;fill-opacity:1;fill-rule:nonzero;stroke:none"
           id="text36"><tspan
             x="0 39.852928 77.874382 112.69022 148.03925 169.6447 206.82675 244.84767 265.00397 285.23532 324.70795 363.18738 400.67365 429.22827 467.24969 505.04263 539.4762 559.63147 579.86389 601.92834 640.40771"
             y="0"
             sodipodi:role="line"
             id="tspan34">Physical Therapy, Inc</tspan></text></g></g></g></svg>
